<svg version="1.2" xmlns="http://www.w3.org/2000/svg" viewBox="0 0 121 77" width="121" height="77">
	<title>CR_logo-svg</title>
	<style>
		.s0 { fill: #ffcc00 } 
		.s1 { fill: #68ba80 } 
		.s2 { fill: #037cba } 
		.s3 { fill: #000000 } 
	</style>
	<g id="logo">
		<g id="Layer">
			<path id="Layer" class="s0" d="m60 4c-25.1 0-46.3 16.8-53 39.8h10.1c6.4-17.5 23.1-30.1 42.8-30.1 19.6 0 36.5 12.6 42.7 30.1h10.2c-6.5-23-27.7-39.8-52.8-39.8z"/>
		</g>
		<path id="Layer" class="s1" d="m60 13.7c-19.7 0-36.5 12.6-42.8 30.1h-10.2c3.4-11.8 10.6-21.9 20.2-29 7.7-4.5 16.7-7.1 26.2-7.1 23.1 0 42.8 15.2 49.5 36.1h-0.3c-6.2-17.5-23-30.1-42.6-30.1z"/>
		<g id="Layer">
			<path id="Layer" class="s2" d="m55 11c16.4 0 31.1 7.8 40.5 19.9-8.3-10.4-21.2-17.2-35.5-17.2-19.7 0-36.5 12.6-42.8 30.1h-9.9c7.4-19.2 26-32.8 47.7-32.8z"/>
		</g>
		<g id="Layer">
			<path id="Layer" class="s3" d="m27 38.6c0-3 2.3-5.2 5.2-5.2 1.7 0 3.1 0.7 4 1.9l-0.7 0.6c-0.8-1-1.9-1.6-3.3-1.6-2.4 0-4.2 1.8-4.2 4.3 0 2.5 1.8 4.4 4.2 4.4 1.5 0 2.7-0.6 3.5-1.7l0.8 0.5c-1 1.4-2.4 2.1-4.3 2.1-2.9 0-5.2-2.2-5.2-5.3z"/>
			<path id="Layer" class="s3" d="m38.9 33.6h6.1v0.8h-5.2v3.8h4.7v0.9h-4.7v3.8h5.5v0.9h-6.4z"/>
			<path id="Layer" class="s3" d="m48.7 35.7v8.1h-0.8v-10.5l7 8.3v-8.1h0.9v10.5h-0.1z"/>
			<path id="Layer" class="s3" d="m61.2 34.4h-3.2v-0.8h7.3v0.8h-3.1v9.4h-1z"/>
			<path id="Layer" fill-rule="evenodd" class="s3" d="m68.8 43.8h-1v-10.2h3c2.3 0 3.4 1.3 3.4 3 0 1.4-0.8 2.5-2.2 2.8l2.7 4.4h-1.1l-2.5-4.2h-2.3zm2-5.1c1.7 0 2.5-0.8 2.5-2.1 0-1.3-0.8-2.2-2.5-2.2h-2v4.3z"/>
			<path id="Layer" class="s3" d="m77.2 33.6h6.2v0.8h-5.2v3.8h4.6v0.9h-4.6v3.8h5.4v0.9h-6.4z"/>
			<path id="Layer" class="s3" d="m86.3 41.4c0.5 1.1 1.5 1.6 2.7 1.6 1.4 0 2.2-0.7 2.2-1.8 0-1.1-0.7-1.6-1.9-2.2l-0.8-0.4c-1.6-0.7-2.5-1.3-2.5-2.7 0-1.5 1.2-2.4 2.7-2.4 1.4 0 2.2 0.4 2.9 1.5l-0.7 0.4c-0.5-0.8-1.2-1.1-2.1-1.1-1.1 0-1.7 0.6-1.7 1.5 0 1 0.6 1.3 1.8 1.9l0.8 0.4c1.6 0.8 2.5 1.5 2.5 3 0 1.7-1.3 2.7-3.2 2.7-1.7 0-2.9-0.8-3.6-2.1z"/>
			<path id="Layer" fill-rule="evenodd" class="s3" d="m9.3 72.1h-2.1v-22.3h6.7c4.8 0 7.3 2.9 7.3 6.7 0 3-1.6 5.4-4.8 6.2l5.9 9.4h-2.4l-5.7-9.1h-4.9zm4.4-10.9c3.6 0 5.3-1.8 5.3-4.7 0-2.8-1.7-4.7-5.3-4.7h-4.4v9.4z"/>
			<path id="Layer" class="s3" d="m28.3 49.8h13.4v1.9h-11.3v8.2h10.1v1.9h-10.1v8.3h11.8v1.9h-13.9z"/>
			<path id="Layer" class="s3" d="m49.6 49.8h2.1v20.4h10.3v1.9h-12.4z"/>
			<path id="Layer" class="s3" d="m68 49.8h2.1v22.3h-2.1z"/>
			<path id="Layer" class="s3" d="m78.2 49.8h13.5v1.9h-11.3v8.2h10v1.9h-10v8.3h11.7v1.9h-13.9z"/>
			<path id="Layer" fill-rule="evenodd" class="s3" d="m101 72.1h-2.1v-22.3h6.6c4.9 0 7.4 2.9 7.4 6.7 0 3-1.7 5.4-4.8 6.2l5.9 9.4h-2.4l-5.6-9.1h-5zm4.5-10.9c3.6 0 5.3-1.8 5.3-4.7 0-2.8-1.7-4.7-5.3-4.7h-4.4v9.4z"/>
		</g>
	</g>
	<g id="baseline">
	</g>
</svg>