<svg xmlns="http://www.w3.org/2000/svg" xmlns:xlink="http://www.w3.org/1999/xlink" x="0px" y="0px" viewBox="0 0 120.2 76.5" style="enable-background:new 0 0 120.2 76.5;" xml:space="preserve"><style type="text/css">	.st0{fill:#FFCC00;}	.st1{fill:#68BA80;}	.st2{fill:#037CBA;}</style><g id="logo">	<g>		<path class="st0" d="M59.5,0C31.3,0,7.5,18.9,0,44.7h11.4c7.1-19.7,25.9-33.8,48-33.8s41,14.1,48,33.8h11.4   C111.5,18.9,87.7,0,59.5,0z"></path>	</g>	<path class="st1" d="M59.5,10.9c-22.1,0-41,14.1-48,33.8H0c3.8-13.2,11.9-24.6,22.7-32.6c8.6-5,18.7-7.9,29.4-7.9  c26,0,48.1,17,55.6,40.5h-0.3C100.4,25,81.6,10.9,59.5,10.9z"></path>	<g>		<path class="st2" d="M53.9,7.9c18.5,0,35,8.7,45.5,22.3c-9.3-11.7-23.8-19.3-39.9-19.3c-22.1,0-41,14.1-48,33.8H0.3   C8.6,23.1,29.5,7.9,53.9,7.9z"></path>	</g>	<g>		<path d="M22.5,38.9c0-3.4,2.6-5.9,5.8-5.9c1.9,0,3.5,0.8,4.5,2.2L32,35.8c-0.9-1.1-2.1-1.8-3.7-1.8c-2.7,0-4.7,2.1-4.7,4.9   c0,2.8,2,4.9,4.7,4.9c1.7,0,3-0.7,3.9-1.9l0.9,0.6c-1.1,1.5-2.7,2.3-4.8,2.3C25.1,44.8,22.5,42.4,22.5,38.9z"></path>		<path d="M35.8,33.2h6.9v1h-5.8v4.2h5.2v1h-5.2v4.3H43v1h-7.2V33.2z"></path>		<path d="M46.9,35.6v9.1h-1V32.9H46l7.8,9.3v-9.1h1v11.8h-0.1L46.9,35.6z"></path>		<path d="M60.9,34.2h-3.6v-1h8.2v1H62v10.5h-1.1V34.2z"></path>		<path d="M69.4,44.7h-1.1V33.2h3.4c2.5,0,3.8,1.5,3.8,3.4c0,1.6-0.9,2.8-2.5,3.2l3,4.9h-1.2L72,40h-0.3h-2.3V44.7z M71.7,39   c1.9,0,2.8-0.9,2.8-2.4c0-1.5-0.9-2.5-2.8-2.5h-2.3V39H71.7z"></path>		<path d="M78.9,33.2h6.9v1H80v4.2h5.2v1H80v4.3h6.1v1h-7.2V33.2z"></path>		<path d="M89.1,42c0.6,1.2,1.7,1.8,3,1.8c1.6,0,2.5-0.8,2.5-2c0-1.3-0.8-1.8-2.2-2.5l-0.9-0.4c-1.7-0.8-2.7-1.5-2.7-3.1   c0-1.6,1.3-2.7,3-2.7c1.5,0,2.5,0.5,3.2,1.7l-0.8,0.5c-0.5-0.9-1.3-1.3-2.3-1.3c-1.2,0-1.9,0.7-1.9,1.7c0,1.1,0.6,1.5,2,2.2   l0.9,0.4c1.8,0.9,2.8,1.7,2.8,3.4c0,1.9-1.4,3-3.6,3c-1.9,0-3.2-0.9-4-2.3L89.1,42z"></path>		<path d="M2.6,76.5H0.2v-25h7.5c5.4,0,8.3,3.2,8.3,7.5c0,3.4-1.9,6-5.4,6.9l6.6,10.6h-2.7L8.1,66.3H7.6h-5V76.5z M7.5,64.2   c4.1,0,6-2,6-5.2c0-3.2-1.9-5.3-6-5.3H2.6v10.5H7.5z"></path>		<path d="M23.9,51.5H39v2.1H26.3v9.2h11.3v2.1H26.3v9.4h13.2v2.1H23.9V51.5z"></path>		<path d="M47.8,51.5h2.4v22.9h11.6v2.1h-14V51.5z"></path>		<path d="M68.5,51.5h2.4v25h-2.4V51.5z"></path>		<path d="M80,51.5h15.1v2.1H82.4v9.2h11.3v2.1H82.4v9.4h13.2v2.1H80V51.5z"></path>		<path d="M105.6,76.5h-2.4v-25h7.5c5.4,0,8.3,3.2,8.3,7.5c0,3.4-1.9,6-5.4,6.9l6.6,10.6h-2.7l-6.3-10.2h-0.6h-5V76.5z M110.6,64.2   c4.1,0,6-2,6-5.2c0-3.2-1.9-5.3-6-5.3h-4.9v10.5H110.6z"></path>	</g></g><g id="baseline"></g></svg>